<svg width="38" height="34" viewBox="0 0 38 34" fill="none" xmlns="http://www.w3.org/2000/svg">
<path d="M37.818 16.8411C37.818 7.53901 29.4414 0 19.1059 0C8.7704 0 0.393799 7.53901 0.393799 16.8411C0.393799 26.1431 8.7704 33.6821 19.1059 33.6821C19.2156 33.6821 19.3252 33.6821 19.4348 33.6755V20.5711H15.4147V16.3543H19.4348V13.2492C19.4348 9.65072 21.8762 7.69031 25.4432 7.69031C27.1536 7.69031 28.6228 7.80215 29.0467 7.85478V11.6177H26.5908C24.6538 11.6177 24.2737 12.4466 24.2737 13.6636V16.3477H28.9152L28.3085 20.5645H24.2737V33.0309C32.0948 31.0112 37.818 24.5314 37.818 16.8411Z" fill="#EBEBEB"/>
</svg>
