<svg width="38" height="35" viewBox="0 0 38 35" fill="none" xmlns="http://www.w3.org/2000/svg">
<path d="M22.8695 17.803C22.8695 19.5832 21.266 21.0264 19.2879 21.0264C17.3098 21.0264 15.7063 19.5832 15.7063 17.803C15.7063 16.0227 17.3098 14.5796 19.2879 14.5796C21.266 14.5796 22.8695 16.0227 22.8695 17.803Z" fill="#EBEBEB"/>
<path d="M27.664 12.0996C27.4919 11.6797 27.2172 11.2997 26.8603 10.9877C26.5137 10.6665 26.0917 10.4193 25.6248 10.2643C25.2462 10.132 24.6775 9.97445 23.6299 9.93153C22.4966 9.88502 22.1568 9.875 19.2879 9.875C16.4187 9.875 16.0789 9.88476 14.9459 9.93128C13.8983 9.97445 13.3293 10.132 12.951 10.2643C12.4841 10.4193 12.0618 10.6665 11.7155 10.9877C11.3586 11.2997 11.0839 11.6795 10.9115 12.0996C10.7644 12.4404 10.5894 12.9525 10.5417 13.8953C10.49 14.915 10.4789 15.2208 10.4789 17.8031C10.4789 20.3852 10.49 20.691 10.5417 21.7109C10.5894 22.6537 10.7644 23.1656 10.9115 23.5063C11.0839 23.9265 11.3583 24.3063 11.7152 24.6183C12.0618 24.9395 12.4838 25.1867 12.9507 25.3416C13.3293 25.4742 13.8983 25.6318 14.9459 25.6747C16.0789 25.7212 16.4184 25.731 19.2876 25.731C22.1571 25.731 22.4969 25.7212 23.6296 25.6747C24.6772 25.6318 25.2462 25.4742 25.6248 25.3416C26.5619 25.0163 27.3026 24.3497 27.664 23.5063C27.8111 23.1656 27.9861 22.6537 28.0341 21.7109C28.0858 20.691 28.0966 20.3852 28.0966 17.8031C28.0966 15.2208 28.0858 14.915 28.0341 13.8953C27.9864 12.9525 27.8114 12.4404 27.664 12.0996ZM19.2879 22.7686C16.2405 22.7686 13.7701 20.5455 13.7701 17.8028C13.7701 15.0602 16.2405 12.8371 19.2879 12.8371C22.335 12.8371 24.8054 15.0602 24.8054 17.8028C24.8054 20.5455 22.335 22.7686 19.2879 22.7686ZM25.0235 13.8013C24.3114 13.8013 23.7341 13.2817 23.7341 12.6408C23.7341 11.9999 24.3114 11.4803 25.0235 11.4803C25.7356 11.4803 26.3129 11.9999 26.3129 12.6408C26.3127 13.2817 25.7356 13.8013 25.0235 13.8013Z" fill="#EBEBEB"/>
<path d="M19.2878 0.961914C8.95497 0.961914 0.575684 8.50328 0.575684 17.8029C0.575684 27.1024 8.95497 34.6438 19.2878 34.6438C29.6206 34.6438 37.9999 27.1024 37.9999 17.8029C37.9999 8.50328 29.6206 0.961914 19.2878 0.961914ZM29.9678 21.7898C29.9159 22.8192 29.734 23.522 29.4685 24.1372C28.9103 25.4362 27.7693 26.4631 26.326 26.9655C25.6427 27.2044 24.8615 27.3679 23.718 27.4149C22.5722 27.4619 22.2062 27.4732 19.2881 27.4732C16.3697 27.4732 16.004 27.4619 14.8579 27.4149C13.7144 27.3679 12.9332 27.2044 12.2499 26.9655C11.5327 26.7226 10.8834 26.342 10.3466 25.8499C9.80012 25.3671 9.37726 24.7825 9.10744 24.1372C8.8419 23.5223 8.66002 22.8192 8.60805 21.79C8.55523 20.7586 8.54295 20.4291 8.54295 17.8029C8.54295 15.1766 8.55523 14.8472 8.60777 13.8159C8.65973 12.7865 8.84133 12.0837 9.10686 11.4685C9.37669 10.8232 9.79983 10.2386 10.3466 9.75577C10.8831 9.26366 11.5327 8.88309 12.2496 8.64025C12.9332 8.40126 13.7141 8.23783 14.8579 8.1908C16.0037 8.14378 16.3697 8.13247 19.2878 8.13247C22.2059 8.13247 22.5719 8.14378 23.7177 8.19106C24.8615 8.23783 25.6424 8.40126 26.326 8.63999C27.0429 8.88283 27.6925 9.26366 28.2293 9.75577C28.7758 10.2389 29.1989 10.8232 29.4685 11.4685C29.7343 12.0837 29.9159 12.7865 29.9681 13.8159C30.0204 14.8472 30.0327 15.1766 30.0327 17.8029C30.0327 20.4291 30.0204 20.7586 29.9678 21.7898Z" fill="#EBEBEB"/>
</svg>
