<svg width="38" height="34" viewBox="0 0 38 34" fill="none" xmlns="http://www.w3.org/2000/svg">
<path d="M18.9631 0C8.63026 0 0.250977 7.54142 0.250977 16.8411C0.250977 26.1407 8.63026 33.6821 18.9631 33.6821C29.2959 33.6821 37.6752 26.1407 37.6752 16.8411C37.6752 7.54142 29.2959 0 18.9631 0ZM13.5256 25.459H8.96832V13.1193H13.5256V25.459ZM11.2471 11.4343H11.2174C9.68813 11.4343 8.69907 10.4869 8.69907 9.30272C8.69907 8.09186 9.71839 7.17061 11.2774 7.17061C12.8363 7.17061 13.7957 8.09186 13.8254 9.30272C13.8254 10.4869 12.8363 11.4343 11.2471 11.4343ZM29.9581 25.459H25.4014V18.8575C25.4014 17.1985 24.7415 16.0671 23.0926 16.0671C21.8338 16.0671 21.084 16.8303 20.7545 17.567C20.634 17.8307 20.6046 18.1992 20.6046 18.5679V25.459H16.0476C16.0476 25.459 16.1073 14.277 16.0476 13.1193H20.6046V14.8665C21.2102 14.0257 22.2937 12.8297 24.7116 12.8297C27.7099 12.8297 29.9581 14.5933 29.9581 18.3834V25.459Z" fill="#EBEBEB"/>
</svg>
