<svg width="38" height="34" viewBox="0 0 38 34" fill="none" xmlns="http://www.w3.org/2000/svg">
<path d="M18.7813 0C8.4485 0 0.0692139 7.54142 0.0692139 16.8411C0.0692139 26.1407 8.4485 33.6821 18.7813 33.6821C29.1142 33.6821 37.4935 26.1407 37.4935 16.8411C37.4935 7.54142 29.1142 0 18.7813 0ZM27.3251 13.1309C27.3334 13.2966 27.3374 13.4631 27.3374 13.6304C27.3374 18.7383 23.0174 24.6284 15.1172 24.6287H15.1175H15.1172C12.6917 24.6287 10.4346 23.9888 8.53387 22.8923C8.86993 22.928 9.21199 22.9457 9.55833 22.9457C11.5707 22.9457 13.4226 22.328 14.8928 21.2911C13.0126 21.2597 11.4274 20.1422 10.8803 18.6062C11.1421 18.6514 11.4114 18.6761 11.6875 18.6761C12.0795 18.6761 12.4593 18.6286 12.8202 18.5399C10.8549 18.1858 9.37445 16.6226 9.37445 14.7508C9.37445 14.7334 9.37445 14.7177 9.37502 14.7015C9.95378 14.9911 10.6156 15.1653 11.3203 15.1849C10.1671 14.4923 9.409 13.3084 9.409 11.9673C9.409 11.2591 9.62172 10.5956 9.99061 10.0243C12.1086 12.3633 15.274 13.9015 18.8436 14.0632C18.7699 13.78 18.7319 13.485 18.7319 13.1818C18.7319 11.0478 20.6555 9.3166 23.0274 9.3166C24.2628 9.3166 25.3787 9.78661 26.1624 10.538C27.1409 10.3643 28.0597 10.0426 28.8898 9.59979C28.5685 10.502 27.8878 11.2591 27.001 11.7378C27.8699 11.6443 28.6979 11.4369 29.4674 11.129C28.8926 11.9043 28.1637 12.5853 27.3251 13.1309Z" fill="#EBEBEB"/>
</svg>
