<svg width="10" height="11" viewBox="0 0 10 11" fill="none" xmlns="http://www.w3.org/2000/svg">
<path d="M9.38318 9.38549L6.328 6.10278C6.8021 5.44422 7.05856 4.63903 7.05856 3.79212C7.05856 2.77836 6.69034 1.8278 6.02448 1.11109C5.35863 0.39438 4.4716 0 3.52928 0C2.58696 0 1.69994 0.395644 1.03408 1.11109C0.367045 1.82654 0 2.77836 0 3.79212C0 4.80461 0.368222 5.7577 1.03408 6.47315C1.69994 7.18986 2.58579 7.58424 3.52928 7.58424C4.31749 7.58424 5.0657 7.30868 5.67861 6.80053L8.7338 10.082C8.74275 10.0916 8.75339 10.0993 8.7651 10.1045C8.77681 10.1097 8.78936 10.1124 8.80203 10.1124C8.8147 10.1124 8.82725 10.1097 8.83896 10.1045C8.85067 10.0993 8.8613 10.0916 8.87026 10.082L9.38318 9.53212C9.39215 9.5225 9.39926 9.51107 9.40411 9.49849C9.40896 9.48591 9.41146 9.47242 9.41146 9.45881C9.41146 9.44519 9.40896 9.43171 9.40411 9.41913C9.39926 9.40655 9.39215 9.39512 9.38318 9.38549ZM5.39274 5.79436C4.89394 6.32905 4.23279 6.62357 3.52928 6.62357C2.82578 6.62357 2.16463 6.32905 1.66582 5.79436C1.16819 5.2584 0.894085 4.54801 0.894085 3.79212C0.894085 3.03622 1.16819 2.32457 1.66582 1.78988C2.16463 1.25519 2.82578 0.96067 3.52928 0.96067C4.23279 0.96067 4.89511 1.25393 5.39274 1.78988C5.89037 2.32583 6.16448 3.03622 6.16448 3.79212C6.16448 4.54801 5.89037 5.25967 5.39274 5.79436Z" fill="#A3A3A3"/>
</svg>
