<svg width="20" height="22" viewBox="0 0 20 22" fill="none" xmlns="http://www.w3.org/2000/svg">
<path d="M19.2154 17.6817C18.7137 16.4655 17.9856 15.3607 17.0718 14.429C16.1607 13.4946 15.0814 12.7496 13.8936 12.2351C13.883 12.2297 13.8723 12.227 13.8617 12.2215C15.5186 10.9966 16.5957 9.00147 16.5957 6.75042C16.5957 3.02136 13.6436 0 10 0C6.35641 0 3.4043 3.02136 3.4043 6.75042C3.4043 9.00147 4.48142 10.9966 6.13832 12.2242C6.12769 12.2297 6.11705 12.2324 6.10641 12.2379C4.91493 12.7523 3.84579 13.4899 2.92824 14.4317C2.01524 15.3642 1.2873 16.4688 0.784636 17.6845C0.290815 18.8746 0.0244864 20.1507 6.65049e-05 21.4435C-0.000643344 21.4725 0.00433542 21.5014 0.0147096 21.5285C0.0250837 21.5555 0.0406433 21.5802 0.0604714 21.601C0.0802996 21.6218 0.103995 21.6383 0.130162 21.6496C0.156329 21.6609 0.184437 21.6667 0.212831 21.6667H1.80857C1.92559 21.6667 2.01867 21.5714 2.02133 21.4544C2.07452 19.353 2.89898 17.3851 4.35642 15.8934C5.86439 14.3501 7.86704 13.5008 10 13.5008C12.133 13.5008 14.1356 14.3501 15.6436 15.8934C17.101 17.3851 17.9255 19.353 17.9787 21.4544C17.9813 21.5741 18.0744 21.6667 18.1914 21.6667H19.7872C19.8156 21.6667 19.8437 21.6609 19.8698 21.6496C19.896 21.6383 19.9197 21.6218 19.9395 21.601C19.9594 21.5802 19.9749 21.5555 19.9853 21.5285C19.9957 21.5014 20.0006 21.4725 19.9999 21.4435C19.9733 20.1424 19.71 18.8767 19.2154 17.6817V17.6817ZM10 11.4322C8.77926 11.4322 7.63033 10.9449 6.76598 10.0603C5.90162 9.17567 5.42556 7.99979 5.42556 6.75042C5.42556 5.50105 5.90162 4.32517 6.76598 3.44054C7.63033 2.5559 8.77926 2.06868 10 2.06868C11.2207 2.06868 12.3697 2.5559 13.234 3.44054C14.0984 4.32517 14.5744 5.50105 14.5744 6.75042C14.5744 7.99979 14.0984 9.17567 13.234 10.0603C12.3697 10.9449 11.2207 11.4322 10 11.4322Z" fill="white"/>
</svg>
